<?xml version="1.0" standalone="no"?>
<!DOCTYPE svg PUBLIC "-//W3C//DTD SVG 20010904//EN"
 "http://www.w3.org/TR/2001/REC-SVG-20010904/DTD/svg10.dtd">
<svg version="1.0" xmlns="http://www.w3.org/2000/svg"
 width="500.000000pt" height="500.000000pt" viewBox="0 0 500.000000 500.000000"
 preserveAspectRatio="xMidYMid meet">

<g transform="translate(0.000000,500.000000) scale(0.100000,-0.100000)"
fill="#000000" stroke="none">
<path d="M1460 3669 l-45 -38 -152 -1 -153 0 0 -160 0 -160 165 0 165 0 0 147
0 147 40 47 c22 26 37 50 32 52 -4 3 -27 -12 -52 -34z m-93 -106 c-19 -27 -44
-67 -56 -90 l-21 -42 -46 49 c-26 27 -50 47 -54 45 -5 -3 13 -42 39 -88 38
-66 52 -82 71 -82 19 0 26 9 40 50 19 54 67 155 75 155 3 0 5 -52 5 -115 l0
-115 -140 0 -140 0 0 140 0 140 131 0 131 0 -35 -47z"/>
<path d="M1721 3592 c-93 -51 -93 -193 0 -244 59 -33 189 -9 165 31 -5 8 -16
6 -36 -4 -78 -40 -163 10 -163 95 0 85 85 135 163 95 20 -10 31 -12 36 -4 24
40 -106 64 -165 31z"/>
<path d="M1969 3511 c-23 -23 -29 -38 -29 -71 0 -52 13 -76 50 -95 79 -41 159
6 160 93 0 63 -40 102 -105 102 -38 0 -52 -5 -76 -29z m130 -27 c12 -15 21
-38 21 -51 0 -32 -42 -73 -75 -73 -33 0 -75 41 -75 73 0 40 36 77 75 77 24 0
39 -7 54 -26z"/>
<path d="M2210 3435 c0 -87 3 -105 15 -105 12 0 15 14 15 65 0 57 3 69 25 90
13 14 31 25 40 25 8 0 15 7 15 15 0 19 -30 19 -58 -1 -20 -14 -22 -14 -22 0 0
9 -7 16 -15 16 -12 0 -15 -18 -15 -105z"/>
<path d="M2370 3435 c0 -98 1 -105 20 -105 18 0 20 7 20 70 0 57 4 74 20 90
11 11 27 20 35 20 8 0 15 7 15 15 0 19 -20 19 -48 -1 -20 -14 -22 -14 -22 0 0
9 -9 16 -20 16 -19 0 -20 -7 -20 -105z"/>
<path d="M2555 3518 c-51 -45 -42 -144 16 -173 37 -20 89 -19 118 1 28 20 14
42 -17 25 -34 -18 -71 -13 -98 14 -14 14 -22 30 -19 35 3 6 44 10 91 10 l84 0
-6 28 c-16 73 -114 107 -169 60z m117 -25 c36 -32 23 -43 -53 -43 -73 0 -75 2
-41 43 19 22 70 22 94 0z"/>
<path d="M2780 3435 c0 -98 1 -105 20 -105 17 0 19 8 22 78 3 76 3 77 35 92
35 16 44 40 15 40 -10 0 -28 -7 -40 -16 -20 -14 -22 -14 -22 0 0 9 -7 16 -15
16 -12 0 -15 -18 -15 -105z"/>
<path d="M1460 3020 l-45 -39 -152 -1 -153 0 0 -160 0 -160 165 0 165 0 0 147
0 147 40 47 c22 26 40 50 40 53 0 14 -18 4 -60 -34z m-94 -107 c-18 -27 -43
-67 -55 -90 l-21 -42 -46 49 c-26 27 -50 47 -54 45 -5 -3 6 -29 23 -59 18 -30
40 -68 49 -85 27 -49 53 -41 77 24 24 63 69 155 76 155 3 0 5 -52 5 -115 l0
-115 -140 0 -140 0 0 140 0 140 130 0 130 0 -34 -47z"/>
<path d="M2730 2914 c0 -55 0 -55 -22 -40 -47 33 -126 10 -148 -43 -38 -93 68
-191 148 -135 20 14 22 14 22 0 0 -9 9 -16 20 -16 19 0 20 7 20 145 0 138 -1
145 -20 145 -18 0 -20 -7 -20 -56z m-20 -74 c44 -44 9 -130 -52 -130 -39 0
-68 32 -68 75 0 44 29 75 70 75 17 0 39 -9 50 -20z"/>
<path d="M1670 2820 l0 -140 100 0 c82 0 100 3 100 15 0 12 -16 15 -80 15
l-80 0 0 50 0 50 70 0 c56 0 70 3 70 15 0 12 -14 15 -70 15 l-70 0 0 45 0 44
78 3 c109 4 93 22 -23 26 l-95 3 0 -141z"/>
<path d="M2140 2915 c0 -18 -5 -25 -20 -25 -11 0 -20 -7 -20 -15 0 -8 9 -15
20 -15 18 0 20 -7 20 -73 0 -59 4 -77 18 -90 19 -17 48 -22 76 -11 21 8 8 33
-15 27 -35 -9 -49 14 -49 83 l0 64 30 0 c20 0 30 5 30 15 0 10 -10 15 -30 15
-25 0 -30 4 -30 25 0 16 -6 25 -15 25 -9 0 -15 -9 -15 -25z"/>
<path d="M1948 2879 c-56 -32 -37 -94 32 -105 22 -4 47 -12 57 -19 41 -30 -46
-62 -97 -35 -22 12 -39 -5 -22 -22 17 -17 104 -20 132 -6 19 11 25 21 25 48 0
33 -3 36 -45 49 -65 20 -75 26 -75 47 0 16 8 19 52 19 28 0 55 4 60 8 22 23
-84 37 -119 16z"/>
<path d="M2300 2810 c0 -73 3 -83 25 -105 28 -29 79 -33 113 -9 20 14 22 14
22 0 0 -9 7 -16 15 -16 12 0 15 18 15 105 0 87 -3 105 -15 105 -12 0 -15 -14
-15 -70 0 -77 -19 -110 -63 -110 -47 0 -61 22 -65 104 -3 56 -8 76 -18 76 -11
0 -14 -18 -14 -80z"/>
<path d="M2858 2879 c-33 -18 -19 -28 32 -22 54 6 80 -6 80 -38 0 -16 -8 -19
-48 -19 -60 0 -92 -21 -92 -60 0 -49 69 -77 121 -50 13 7 19 7 19 0 0 -5 9
-10 21 -10 20 0 21 4 18 86 -4 76 -7 88 -28 105 -25 21 -94 25 -123 8z m112
-123 c0 -13 -6 -29 -14 -35 -21 -17 -77 -9 -90 12 -15 25 16 47 66 47 33 0 38
-3 38 -24z"/>
<path d="M3080 2785 c0 -98 1 -105 20 -105 18 0 20 7 20 70 0 57 4 74 20 90
11 11 27 20 35 20 8 0 15 7 15 15 0 19 -20 19 -48 -1 -20 -14 -22 -14 -22 0 0
9 -9 16 -20 16 -19 0 -20 -7 -20 -105z"/>
<path d="M1111 2180 l-2 -160 165 0 166 0 0 160 0 160 -163 0 -164 0 -2 -160z
m309 0 l0 -140 -140 0 -140 0 0 140 0 140 140 0 140 0 0 -140z"/>
<path d="M1670 2180 l0 -142 89 4 c127 6 175 43 175 138 0 95 -48 132 -175
138 l-89 4 0 -142z m164 96 c43 -18 66 -51 66 -96 0 -68 -56 -110 -145 -110
l-45 0 0 110 0 110 45 0 c25 0 61 -6 79 -14z"/>
<path d="M2005 2237 c-24 -18 -11 -41 15 -27 33 17 78 12 94 -12 21 -30 12
-38 -42 -38 -57 0 -92 -21 -92 -56 0 -52 69 -81 123 -53 16 9 22 9 25 0 2 -6
10 -11 18 -11 11 0 14 18 14 80 0 73 -3 83 -25 105 -28 29 -98 35 -130 12z
m120 -107 c4 -6 -1 -22 -9 -35 -29 -43 -118 -27 -100 18 9 25 96 38 109 17z"/>
<path d="M2240 2145 c0 -87 3 -105 15 -105 12 0 15 14 15 70 0 80 19 110 69
110 44 0 61 -31 61 -112 0 -54 3 -68 15 -68 12 0 15 16 15 83 0 74 -3 86 -23
105 -28 26 -82 29 -115 6 -20 -14 -22 -14 -22 0 0 9 -7 16 -15 16 -12 0 -15
-18 -15 -105z"/>
<path d="M2541 2236 c-71 -39 -65 -155 9 -186 18 -7 29 -18 26 -26 -3 -7 2
-15 10 -18 25 -10 16 -36 -13 -36 -20 0 -24 -3 -16 -11 15 -15 62 -3 70 18 4
10 -2 23 -16 34 l-23 19 27 10 c14 5 30 10 34 10 5 0 14 7 22 16 18 22 -9 39
-32 18 -42 -38 -113 0 -113 61 0 61 71 99 113 61 12 -11 21 -12 31 -5 13 8 11
13 -9 29 -27 23 -84 26 -120 6z"/>
<path d="M2745 2237 c-24 -18 -11 -41 15 -27 33 17 78 12 94 -12 21 -30 12
-38 -42 -38 -57 0 -92 -21 -92 -56 0 -52 69 -81 123 -53 16 9 22 9 25 0 2 -6
10 -11 18 -11 11 0 14 18 14 80 0 73 -3 83 -25 105 -28 29 -98 35 -130 12z
m120 -107 c4 -6 -1 -22 -9 -35 -29 -43 -118 -27 -100 18 9 25 96 38 109 17z"/>
<path d="M2980 2145 c0 -87 3 -105 15 -105 12 0 15 14 15 68 0 59 3 72 23 90
13 12 31 22 40 22 9 0 17 7 17 15 0 19 -30 19 -58 -1 -20 -14 -22 -14 -22 0 0
9 -7 16 -15 16 -12 0 -15 -18 -15 -105z"/>
<path d="M1111 1530 l-2 -160 166 0 165 0 0 160 0 160 -164 0 -164 0 -1 -160z
m309 0 l0 -140 -140 0 -140 0 0 140 0 140 140 0 140 0 0 -140z"/>
<path d="M2560 1670 c0 -13 7 -20 20 -20 13 0 20 7 20 20 0 13 -7 20 -20 20
-13 0 -20 -7 -20 -20z"/>
<path d="M2450 1624 c0 -55 0 -55 -22 -40 -45 32 -123 11 -146 -39 -16 -35
-15 -60 3 -100 25 -52 96 -72 143 -39 20 14 22 14 22 0 0 -9 9 -16 20 -16 19
0 20 7 20 145 0 138 -1 145 -20 145 -18 0 -20 -7 -20 -56z m-20 -74 c44 -44 9
-130 -52 -130 -39 0 -68 32 -68 75 0 44 29 75 70 75 17 0 39 -9 50 -20z"/>
<path d="M1670 1530 c0 -116 2 -140 15 -140 11 0 15 20 17 103 l3 102 50 -82
c27 -46 55 -83 61 -83 7 0 34 37 61 83 l48 82 3 -102 c2 -83 6 -103 17 -103
13 0 15 24 15 140 0 109 -3 140 -13 140 -7 0 -38 -43 -68 -95 -30 -52 -57 -94
-61 -95 -4 0 -33 43 -64 95 -31 52 -63 95 -70 95 -11 0 -14 -28 -14 -140z"/>
<path d="M2680 1626 c0 -16 -6 -26 -15 -26 -8 0 -15 -7 -15 -15 0 -8 7 -15 15
-15 12 0 15 -14 15 -70 0 -83 20 -113 72 -108 43 4 48 26 6 30 l-33 3 -3 73
-3 72 31 0 c20 0 30 5 30 15 0 10 -10 15 -29 15 -23 0 -30 5 -33 22 -5 34 -38
37 -38 4z"/>
<path d="M2059 1571 c-57 -57 -31 -158 45 -177 34 -8 91 3 105 20 16 19 -3 30
-28 16 -33 -17 -71 -11 -97 15 -14 14 -22 30 -19 35 3 6 42 10 86 10 78 0 79
0 79 26 0 15 -12 38 -29 55 -23 23 -38 29 -71 29 -33 0 -48 -6 -71 -29z m121
-21 c33 -33 24 -40 -50 -40 -40 0 -70 4 -70 10 0 21 41 50 70 50 17 0 39 -9
50 -20z"/>
<path d="M2560 1495 c0 -98 1 -105 20 -105 19 0 20 7 20 105 0 98 -1 105 -20
105 -19 0 -20 -7 -20 -105z"/>
<path d="M2853 1590 c-15 -6 -21 -15 -17 -24 5 -12 11 -13 24 -6 26 14 84 12
98 -2 7 -7 12 -20 12 -30 0 -15 -9 -18 -50 -18 -41 0 -56 -5 -75 -25 -14 -13
-25 -29 -25 -35 0 -6 11 -22 25 -35 26 -27 72 -33 106 -15 13 7 19 7 19 0 0
-5 7 -10 15 -10 12 0 15 16 15 85 0 72 -3 88 -20 105 -22 22 -86 26 -127 10z
m117 -119 c0 -32 -29 -52 -69 -49 -26 2 -37 8 -40 22 -5 27 25 46 71 46 31 0
38 -4 38 -19z"/>
<path d="M3080 1495 c0 -98 1 -105 20 -105 17 0 19 8 22 78 3 76 3 77 35 92
35 16 44 40 15 40 -10 0 -28 -7 -40 -16 -20 -14 -22 -14 -22 0 0 9 -7 16 -15
16 -12 0 -15 -18 -15 -105z"/>
</g>
</svg>
